<svg id="Capa_1" enable-background="new 0 0 511.97 511.97" height="512" viewBox="0 0 511.97 511.97" width="512" xmlns="http://www.w3.org/2000/svg"><g><path d="m504.462 168.986-.591-119.881c-.112-22.626-18.426-40.941-41.053-41.053l-119.88-.591c-23.951-.118-46.085 12.752-57.829 33.626l-108.589 193 101.317 101.317 192.999-108.588c20.874-11.746 33.744-33.879 33.626-57.83z" fill="#8ee2e1"/><path d="m360.195 7.546-17.257-.085c-23.951-.118-46.085 12.752-57.829 33.626l-108.589 193 101.317 101.317 65.847-37.048c-102.704-54.724-46.103-228.749 16.511-290.81z" fill="#6ad7d4"/><path d="m87.159 317.365h86.666v128.135h-86.666z" fill="#a78cd6" transform="matrix(.707 .707 -.707 .707 307.933 19.448)"/><path d="m145.153 305.489-34.055 34.055c10.151 11.252 20.23 21.648 29.932 31.35 9.701 9.702 20.098 19.782 31.35 29.932l34.055-34.055z" fill="#807bcf"/><path d="m111.528 489.573c21.738-21.738 20.021-37.965-15.596-73.582s-51.844-37.334-73.582-15.596c-21.738 21.738-19.396 59.323 5.229 83.949 24.626 24.626 62.211 26.967 83.949 5.229z" fill="#f5ea72"/><path d="m165.778 346.145c-32.865-32.865-70.256-74.007-98.402-129.974-13.835-27.51-2.749-61.028 24.762-74.863 27.51-13.835 61.028-2.749 74.863 24.762 20.978 41.714 49.708 73.302 77.63 101.223s59.51 56.651 101.225 77.63c27.509 13.832 38.596 47.352 24.761 74.863s-47.353 38.596-74.863 24.761c-55.969-28.146-97.111-65.538-129.976-98.402z" fill="#d4d4ff"/><g><g fill="#fff"><ellipse cx="318.103" cy="79.775" rx="23.696" ry="29.755" transform="matrix(.708 -.707 .707 .708 36.615 248.055)"/><ellipse cx="432.05" cy="193.919" rx="23.696" ry="29.756" transform="matrix(.708 -.707 .707 .708 -10.722 361.921)"/></g></g><path d="m275.757 236.166c2.93 2.929 7.678 2.929 10.607 0l53.615-53.615c2.929-2.929 2.929-7.678 0-10.606-2.93-2.929-7.678-2.929-10.607 0l-53.615 53.615c-2.929 2.928-2.929 7.677 0 10.606zm76.146-155.032 8.404-8.391c2.932-2.927 2.936-7.675.009-10.607-2.926-2.931-7.675-2.935-10.606-.008l-8.404 8.391c-2.932 2.927-2.936 7.675-.009 10.607 2.917 2.921 7.666 2.943 10.606.008zm159.468-32.066c-.132-26.62-21.897-48.384-48.516-48.516l-112.011-.552h-.038c-4.125 0-7.479 3.333-7.499 7.463-.021 4.142 3.321 7.517 7.463 7.537l112.012.553c18.43.091 33.498 15.159 33.59 33.59l.591 119.88c.104 21.214-11.315 40.854-29.804 51.255l-161.575 90.908c-20.806-15.399-38.894-32.441-55.649-49.197-16.756-16.756-33.797-34.844-49.196-55.649l90.907-161.576c6.129-10.893 15.384-19.386 26.766-24.562 3.771-1.715 5.438-6.161 3.723-9.932s-6.16-5.439-9.932-3.722c-14.301 6.503-25.929 17.175-33.629 30.861l-87.388 155.319c-6.253-9.423-12.134-19.392-17.483-30.029-15.707-31.233-53.695-43.801-84.933-28.092-31.232 15.706-43.803 53.696-28.092 84.933 18.925 37.632 41.899 68.608 64.916 94.903l-65.964 65.962c-16.838-5.246-30.012 2.116-42.583 14.687-24.627 24.627-22.281 67.044 5.229 94.555 26.415 26.415 68.867 30.918 94.555 5.229 12.572-12.572 19.934-25.745 14.687-42.583l65.957-65.957c23.195 20.307 50.188 40.704 82.347 58.315 3.635 1.99 8.192.658 10.181-2.976 1.989-3.633.657-8.191-2.976-10.181-49.268-26.98-86.259-60.967-115.946-90.654-32.442-32.442-69.337-73.025-97.005-128.041-11.982-23.827-2.399-52.808 21.431-64.793 23.774-11.955 52.838-2.341 64.793 21.431 21.455 42.663 50.661 74.792 79.026 103.157 28.364 28.364 60.492 57.57 103.158 79.028 23.827 11.981 33.413 40.962 21.43 64.793-8.645 17.19-26.632 27.601-45.86 26.511-4.143-.228-7.678 2.929-7.911 7.065s2.93 7.677 7.065 7.911c24.898 1.406 48.651-11.968 60.106-34.748 15.707-31.231 3.148-69.225-28.091-84.933-10.637-5.35-20.607-11.23-30.029-17.484l155.319-87.388c23.23-13.07 37.58-37.747 37.448-64.403zm-405.146 435.202c-19.681 19.682-52.729 15.383-73.342-5.229-21.662-21.663-24.008-54.564-5.229-73.342 7.25-7.249 13.425-11.986 21.102-11.986 9.765 0 21.959 7.668 41.874 27.582 35.568 35.569 32.066 46.504 15.595 62.975zm54.25-132.822c8.045 8.045 16.623 16.4 25.821 24.854l-61.749 61.748c-5.134-7.911-12.731-16.782-23.312-27.363s-19.452-18.178-27.363-23.312l61.752-61.752c8.423 9.167 16.773 17.747 24.851 25.825zm280.862-180.706 8.404-8.392c2.932-2.927 2.936-7.675.009-10.606-2.926-2.931-7.675-2.936-10.606-.008l-8.404 8.392c-2.932 2.927-2.936 7.675-.009 10.606 2.917 2.922 7.666 2.944 10.606.008zm-36.658-29.267c2.932-2.927 2.936-7.675.009-10.607l-23.581-23.622c-2.926-2.931-7.675-2.936-10.606-.009-2.932 2.927-2.936 7.675-.009 10.607l23.581 23.622c2.916 2.921 7.665 2.944 10.606.009z"/></g></svg>